<svg width="95" height="57" viewBox="0 0 95 57" fill="none" xmlns="http://www.w3.org/2000/svg">
<g id="Group">
<rect id="Rectangle 3" opacity="0.1" width="3.76195" height="3.75252" fill="white"/>
<rect id="Rectangle 3.1" opacity="0.1" x="13.1669" width="3.76195" height="3.75252" fill="white"/>
<rect id="Rectangle 3.2" opacity="0.1" x="25.3932" width="3.76195" height="3.75252" fill="white"/>
<rect id="Rectangle 3.3" opacity="0.1" x="38.5601" width="3.76195" height="3.75252" fill="white"/>
<rect id="Rectangle 3.4" opacity="0.1" x="51.7268" width="3.76195" height="3.75252" fill="white"/>
<rect id="Rectangle 3.5" opacity="0.1" x="64.8937" width="3.76195" height="3.75252" fill="white"/>
<rect id="Rectangle 3.6" opacity="0.1" x="78.0605" width="3.76195" height="3.75252" fill="white"/>
<rect id="Rectangle 3.7" opacity="0.1" x="91.2273" width="3.76195" height="3.75252" fill="white"/>
<rect id="Rectangle 3.8" opacity="0.1" x="51.7268" y="13.134" width="3.76195" height="3.75252" fill="white"/>
<rect id="Rectangle 3.9" opacity="0.1" x="64.8937" y="13.134" width="3.76195" height="3.75252" fill="white"/>
<rect id="Rectangle 3.10" opacity="0.1" x="78.0605" y="13.134" width="3.76195" height="3.75252" fill="white"/>
<rect id="Rectangle 3.11" opacity="0.1" x="91.2273" y="13.134" width="3.76195" height="3.75252" fill="white"/>
<rect id="Rectangle 3.12" opacity="0.1" x="51.7268" y="26.2678" width="3.76195" height="3.75252" fill="white"/>
<rect id="Rectangle 3.13" opacity="0.1" x="64.8937" y="26.2678" width="3.76195" height="3.75252" fill="white"/>
<rect id="Rectangle 3.16" opacity="0.1" x="51.7268" y="39.4016" width="3.76195" height="3.75252" fill="white"/>
<rect id="Rectangle 3.17" opacity="0.1" x="64.8937" y="39.4016" width="3.76195" height="3.75252" fill="white"/>
<rect id="Rectangle 3.18" opacity="0.1" x="51.7268" y="52.5354" width="3.76195" height="3.75252" fill="white"/>
<rect id="Rectangle 3.19" opacity="0.1" x="64.8937" y="52.5354" width="3.76195" height="3.75252" fill="white"/>
<rect id="Rectangle 3.20" opacity="0.1" x="25.3932" y="39.4016" width="3.76195" height="3.75252" fill="white"/>
<rect id="Rectangle 3.21" opacity="0.1" x="38.5601" y="39.4016" width="3.76195" height="3.75252" fill="white"/>
<rect id="Rectangle 3.24" opacity="0.1" y="39.4016" width="3.76195" height="3.75252" fill="white"/>
<rect id="Rectangle 3.25" opacity="0.1" x="13.1669" y="39.4016" width="3.76195" height="3.75252" fill="white"/>
<rect id="Rectangle 3.22" opacity="0.1" x="25.3932" y="52.5354" width="3.76195" height="3.75252" fill="white"/>
<rect id="Rectangle 3.23" opacity="0.1" x="38.5601" y="52.5354" width="3.76195" height="3.75252" fill="white"/>
<rect id="Rectangle 3.14" opacity="0.1" x="78.0605" y="26.2678" width="3.76195" height="3.75252" fill="white"/>
<rect id="Rectangle 3.15" opacity="0.1" x="91.2273" y="26.2678" width="3.76195" height="3.75252" fill="white"/>
</g>
</svg>
