<svg width="92" height="155" viewBox="0 0 92 155" fill="none" xmlns="http://www.w3.org/2000/svg">
<g id="Vector" opacity="0.1">
<path d="M85.8572 -0.000579834H92V6.1235H85.8572V-0.000579834Z" fill="white"/>
<path d="M85.8572 21.4869H92V27.611H85.8572V21.4869Z" fill="white"/>
<path d="M85.8572 41.4393H92V47.5634H85.8572V41.4393Z" fill="white"/>
<path d="M85.8572 62.9263H92V69.0504H85.8572V62.9263Z" fill="white"/>
<path d="M85.8572 84.4137H92V90.5378H85.8572V84.4137Z" fill="white"/>
<path d="M85.8572 105.901H92V112.025H85.8572V105.901Z" fill="white"/>
<path d="M85.8572 127.389H92V133.513H85.8572V127.389Z" fill="white"/>
<path d="M85.8572 148.876H92V155H85.8572V148.876Z" fill="white"/>
<path d="M64.4106 84.4137H70.5534V90.5378H64.4106V84.4137Z" fill="white"/>
<path d="M64.4106 105.901H70.5534V112.025H64.4106V105.901Z" fill="white"/>
<path d="M64.4106 127.389H70.5534V133.513H64.4106V127.389Z" fill="white"/>
<path d="M64.4106 148.876H70.5534V155H64.4106V148.876Z" fill="white"/>
<path d="M42.964 84.4137H49.1068V90.5378H42.964V84.4137Z" fill="white"/>
<path d="M42.964 105.901H49.1068V112.025H42.964V105.901Z" fill="white"/>
<path d="M21.5174 84.4137H27.6601V90.5378H21.5174V84.4137Z" fill="white"/>
<path d="M21.5174 105.901H27.6601V112.025H21.5174V105.901Z" fill="white"/>
<path d="M0.0708542 84.4137H6.21362V90.5378H0.0708542V84.4137Z" fill="white"/>
<path d="M0.0708542 105.901H6.21362V112.025H0.0708542V105.901Z" fill="white"/>
<path d="M21.5174 41.4393H27.6601V47.5634H21.5174V41.4393Z" fill="white"/>
<path d="M21.5174 62.9263H27.6601V69.0504H21.5174V62.9263Z" fill="white"/>
<path d="M21.5174 -0.000579834H27.6601V6.1235H21.5174V-0.000579834Z" fill="white"/>
<path d="M21.5174 21.4869H27.6601V27.611H21.5174V21.4869Z" fill="white"/>
<path d="M0.0708542 41.4393H6.21362V47.5634H0.0708542V41.4393Z" fill="white"/>
<path d="M0.0708542 62.9263H6.21362V69.0504H0.0708542V62.9263Z" fill="white"/>
<path d="M42.964 127.389H49.1068V133.513H42.964V127.389Z" fill="white"/>
<path d="M42.964 148.876H49.1068V155H42.964V148.876Z" fill="white"/>
</g>
</svg>
