<svg width="228" height="168" viewBox="0 0 228 168" fill="none" xmlns="http://www.w3.org/2000/svg">
<g id="Vector" opacity="0.1">
<path d="M13.1539 1.56698L11.6141 0L0.322001 11.4912L1.86183 13.0582L13.1539 1.56698Z" fill="#EDEDED"/>
<path d="M1.53983 0.0896195L0 1.6566L11.2921 13.1478L12.8319 11.5808L1.53983 0.0896195Z" fill="#EDEDED"/>
<path d="M43.8463 1.56698L42.3064 0L31.0144 11.4912L32.5542 13.0582L43.8463 1.56698Z" fill="#EDEDED"/>
<path d="M32.2322 0.0896195L30.6924 1.6566L41.9844 13.1478L43.5243 11.5808L32.2322 0.0896195Z" fill="#EDEDED"/>
<path d="M74.5386 1.56698L72.9987 0L61.7067 11.4912L63.2465 13.0582L74.5386 1.56698Z" fill="#EDEDED"/>
<path d="M62.9245 0.0896195L61.3847 1.6566L72.6767 13.1478L74.2166 11.5808L62.9245 0.0896195Z" fill="#EDEDED"/>
<path d="M105.231 1.56698L103.691 0L92.399 11.4912L93.9388 13.0582L105.231 1.56698Z" fill="#EDEDED"/>
<path d="M93.6168 0.0896195L92.077 1.6566L103.369 13.1478L104.909 11.5808L93.6168 0.0896195Z" fill="#EDEDED"/>
<path d="M135.923 1.56698L134.383 0L123.091 11.4912L124.631 13.0582L135.923 1.56698Z" fill="#EDEDED"/>
<path d="M124.309 0.0896195L122.769 1.6566L134.061 13.1478L135.601 11.5808L124.309 0.0896195Z" fill="#EDEDED"/>
<path d="M43.8463 33.7061L42.3064 32.1391L31.0144 43.6303L32.5542 45.1973L43.8463 33.7061Z" fill="#EDEDED"/>
<path d="M32.2322 32.2287L30.6924 33.7957L41.9844 45.2869L43.5243 43.72L32.2322 32.2287Z" fill="#EDEDED"/>
<path d="M74.5386 33.7061L72.9987 32.1391L61.7067 43.6303L63.2465 45.1973L74.5386 33.7061Z" fill="#EDEDED"/>
<path d="M62.9245 32.2287L61.3847 33.7957L72.6767 45.2869L74.2166 43.72L62.9245 32.2287Z" fill="#EDEDED"/>
<path d="M105.231 33.7061L103.691 32.1391L92.399 43.6303L93.9388 45.1973L105.231 33.7061Z" fill="#EDEDED"/>
<path d="M93.6168 32.2287L92.077 33.7957L103.369 45.2869L104.909 43.72L93.6168 32.2287Z" fill="#EDEDED"/>
<path d="M135.923 33.7061L134.383 32.1391L123.091 43.6303L124.631 45.1973L135.923 33.7061Z" fill="#EDEDED"/>
<path d="M124.309 32.2287L122.769 33.7957L134.061 45.2869L135.601 43.72L124.309 32.2287Z" fill="#EDEDED"/>
<path d="M43.8463 62.9235L42.3064 61.3565L31.0144 72.8477L32.5542 74.4147L43.8463 62.9235Z" fill="#EDEDED"/>
<path d="M32.2322 61.4461L30.6924 63.0131L41.9844 74.5043L43.5243 72.9374L32.2322 61.4461Z" fill="#EDEDED"/>
<path d="M74.5386 62.9235L72.9987 61.3565L61.7067 72.8477L63.2465 74.4147L74.5386 62.9235Z" fill="#EDEDED"/>
<path d="M62.9245 61.4461L61.3847 63.0131L72.6767 74.5043L74.2166 72.9374L62.9245 61.4461Z" fill="#EDEDED"/>
<path d="M105.231 62.9235L103.691 61.3565L92.399 72.8477L93.9388 74.4147L105.231 62.9235Z" fill="#EDEDED"/>
<path d="M93.6168 61.4461L92.077 63.0131L103.369 74.5043L104.909 72.9374L93.6168 61.4461Z" fill="#EDEDED"/>
<path d="M135.923 62.9235L134.383 61.3565L123.091 72.8477L124.631 74.4147L135.923 62.9235Z" fill="#EDEDED"/>
<path d="M124.309 61.4461L122.769 63.0131L134.061 74.5043L135.601 72.9374L124.309 61.4461Z" fill="#EDEDED"/>
<path d="M166.615 62.9235L165.076 61.3565L153.784 72.8477L155.323 74.4147L166.615 62.9235Z" fill="#EDEDED"/>
<path d="M155.001 61.4461L153.462 63.0131L164.754 74.5043L166.293 72.9374L155.001 61.4461Z" fill="#EDEDED"/>
<path d="M197.308 62.9235L195.768 61.3565L184.476 72.8477L186.016 74.4147L197.308 62.9235Z" fill="#EDEDED"/>
<path d="M185.694 61.4461L184.154 63.0131L195.446 74.5043L196.986 72.9374L185.694 61.4461Z" fill="#EDEDED"/>
<path d="M228 62.9235L226.46 61.3565L215.168 72.8477L216.708 74.4147L228 62.9235Z" fill="#EDEDED"/>
<path d="M216.386 61.4461L214.846 63.0131L226.138 74.5043L227.678 72.9374L216.386 61.4461Z" fill="#EDEDED"/>
<path d="M135.923 95.0626L134.383 93.4956L123.091 104.987L124.631 106.554L135.923 95.0626Z" fill="#EDEDED"/>
<path d="M124.309 93.5853L122.769 95.1523L134.061 106.643L135.601 105.076L124.309 93.5853Z" fill="#EDEDED"/>
<path d="M13.154 95.0626L11.6142 93.4956L0.322091 104.987L1.86192 106.554L13.154 95.0626Z" fill="#EDEDED"/>
<path d="M1.53992 93.5853L8.92052e-05 95.1523L11.2922 106.643L12.832 105.076L1.53992 93.5853Z" fill="#EDEDED"/>
<path d="M43.8463 95.0626L42.3064 93.4956L31.0144 104.987L32.5542 106.554L43.8463 95.0626Z" fill="#EDEDED"/>
<path d="M32.2322 93.5853L30.6924 95.1523L41.9844 106.643L43.5243 105.076L32.2322 93.5853Z" fill="#EDEDED"/>
<path d="M74.5386 95.0626L72.9987 93.4956L61.7067 104.987L63.2465 106.554L74.5386 95.0626Z" fill="#EDEDED"/>
<path d="M62.9245 93.5853L61.3847 95.1523L72.6767 106.643L74.2166 105.076L62.9245 93.5853Z" fill="#EDEDED"/>
<path d="M105.231 95.0626L103.691 93.4956L92.399 104.987L93.9388 106.554L105.231 95.0626Z" fill="#EDEDED"/>
<path d="M93.6168 93.5853L92.077 95.1523L103.369 106.643L104.909 105.076L93.6168 93.5853Z" fill="#EDEDED"/>
<path d="M105.231 127.202L103.691 125.635L92.399 137.126L93.9388 138.693L105.231 127.202Z" fill="#EDEDED"/>
<path d="M93.6168 125.724L92.077 127.291L103.369 138.783L104.909 137.216L93.6168 125.724Z" fill="#EDEDED"/>
<path d="M135.923 127.202L134.383 125.635L123.091 137.126L124.631 138.693L135.923 127.202Z" fill="#EDEDED"/>
<path d="M124.309 125.724L122.769 127.291L134.061 138.783L135.601 137.216L124.309 125.724Z" fill="#EDEDED"/>
<path d="M166.615 95.0626L165.076 93.4956L153.784 104.987L155.323 106.554L166.615 95.0626Z" fill="#EDEDED"/>
<path d="M155.001 93.5853L153.462 95.1523L164.754 106.643L166.293 105.076L155.001 93.5853Z" fill="#EDEDED"/>
<path d="M166.615 127.202L165.076 125.635L153.784 137.126L155.323 138.693L166.615 127.202Z" fill="#EDEDED"/>
<path d="M155.001 125.724L153.462 127.291L164.754 138.783L166.293 137.216L155.001 125.724Z" fill="#EDEDED"/>
<path d="M197.308 95.0626L195.768 93.4956L184.476 104.987L186.016 106.554L197.308 95.0626Z" fill="#EDEDED"/>
<path d="M185.694 93.5853L184.154 95.1523L195.446 106.643L196.986 105.076L185.694 93.5853Z" fill="#EDEDED"/>
<path d="M197.308 127.202L195.768 125.635L184.476 137.126L186.016 138.693L197.308 127.202Z" fill="#EDEDED"/>
<path d="M185.694 125.724L184.154 127.291L195.446 138.783L196.986 137.216L185.694 125.724Z" fill="#EDEDED"/>
<path d="M135.923 156.419L134.383 154.852L123.091 166.343L124.631 167.91L135.923 156.419Z" fill="#EDEDED"/>
<path d="M124.309 154.942L122.769 156.509L134.061 168L135.601 166.433L124.309 154.942Z" fill="#EDEDED"/>
<path d="M166.615 156.419L165.076 154.852L153.784 166.343L155.323 167.91L166.615 156.419Z" fill="#EDEDED"/>
<path d="M155.001 154.942L153.462 156.509L164.754 168L166.293 166.433L155.001 154.942Z" fill="#EDEDED"/>
<path d="M197.308 156.419L195.768 154.852L184.476 166.343L186.016 167.91L197.308 156.419Z" fill="#EDEDED"/>
<path d="M185.694 154.942L184.154 156.509L195.446 168L196.986 166.433L185.694 154.942Z" fill="#EDEDED"/>
<path d="M228 156.419L226.46 154.852L215.168 166.343L216.708 167.91L228 156.419Z" fill="#EDEDED"/>
<path d="M216.386 154.942L214.846 156.509L226.138 168L227.678 166.433L216.386 154.942Z" fill="#EDEDED"/>
</g>
</svg>
