<svg width="92" height="155" viewBox="0 0 92 155" fill="none" xmlns="http://www.w3.org/2000/svg">
<g id="Vector" opacity="0.1">
<path d="M6.14277 -9.15527e-05H0L0 6.12399H6.14277L6.14277 -9.15527e-05Z" fill="white"/>
<path d="M6.14277 21.4874H0L0 27.6115H6.14277V21.4874Z" fill="white"/>
<path d="M6.14277 41.4398H0L0 47.5638H6.14277L6.14277 41.4398Z" fill="white"/>
<path d="M6.14277 62.9268H0L0 69.0508H6.14277V62.9268Z" fill="white"/>
<path d="M6.14277 84.4142H0L0 90.5383H6.14277L6.14277 84.4142Z" fill="white"/>
<path d="M6.14277 105.902H0L0 112.026H6.14277V105.902Z" fill="white"/>
<path d="M6.14277 127.389H0L0 133.513H6.14277L6.14277 127.389Z" fill="white"/>
<path d="M6.14277 148.876H0L0 155H6.14277V148.876Z" fill="white"/>
<path d="M27.5894 84.4142H21.4466V90.5383H27.5894V84.4142Z" fill="white"/>
<path d="M27.5894 105.902H21.4466V112.026H27.5894V105.902Z" fill="white"/>
<path d="M27.5894 127.389H21.4466V133.513H27.5894V127.389Z" fill="white"/>
<path d="M27.5894 148.876H21.4466V155H27.5894V148.876Z" fill="white"/>
<path d="M49.036 84.4142H42.8932V90.5383H49.036V84.4142Z" fill="white"/>
<path d="M49.036 105.902H42.8932V112.026H49.036V105.902Z" fill="white"/>
<path d="M70.4826 84.4142H64.3399V90.5383H70.4826V84.4142Z" fill="white"/>
<path d="M70.4826 105.902H64.3399V112.026H70.4826V105.902Z" fill="white"/>
<path d="M91.9291 84.4142H85.7864V90.5383H91.9291V84.4142Z" fill="white"/>
<path d="M91.9291 105.902H85.7864V112.026H91.9291V105.902Z" fill="white"/>
<path d="M70.4826 41.4398H64.3399V47.5638H70.4826V41.4398Z" fill="white"/>
<path d="M70.4826 62.9268H64.3399V69.0508H70.4826V62.9268Z" fill="white"/>
<path d="M70.4826 -9.15527e-05H64.3399V6.12399H70.4826V-9.15527e-05Z" fill="white"/>
<path d="M70.4826 21.4874H64.3399V27.6115H70.4826V21.4874Z" fill="white"/>
<path d="M91.9291 41.4398H85.7864V47.5638H91.9291V41.4398Z" fill="white"/>
<path d="M91.9291 62.9268H85.7864V69.0508H91.9291V62.9268Z" fill="white"/>
<path d="M49.036 127.389H42.8932V133.513H49.036V127.389Z" fill="white"/>
<path d="M49.036 148.876H42.8932V155H49.036V148.876Z" fill="white"/>
</g>
</svg>
